REM MD5 37bce55e2ee067578fafa6729eb8bbf6
FILE "Euro Demo Germany 07-01 (Germany).bin" BINARY
  TRACK 01 MODE2/2352
    INDEX 01 00:00:00
  TRACK 02 AUDIO
    INDEX 00 56:22:42
    INDEX 01 56:24:42
  TRACK 03 AUDIO
    INDEX 00 60:26:60
    INDEX 01 60:28:60
REM LEADOUT 63:30:17
